<?xml version="1.0" standalone="no"?>
<!DOCTYPE svg PUBLIC "-//W3C//DTD SVG 20010904//EN"
 "http://www.w3.org/TR/2001/REC-SVG-20010904/DTD/svg10.dtd">
<svg version="1.0" xmlns="http://www.w3.org/2000/svg"
 width="414.000000pt" height="896.000000pt" viewBox="0 0 414.000000 896.000000"
 preserveAspectRatio="xMidYMid meet">

<g transform="translate(0.000000,896.000000) scale(0.100000,-0.100000)"
fill="#000000" stroke="none">
<path d="M0 7360 l0 -1601 28 33 c51 60 107 129 137 168 70 90 203 268 225
300 67 98 124 151 213 197 62 32 87 50 83 60 -8 19 31 109 66 154 15 20 45 44
65 54 88 40 214 118 247 152 27 28 34 42 30 63 -4 18 5 43 30 86 43 75 52 82
107 92 54 10 69 6 69 -19 0 -20 22 -17 52 8 9 8 34 21 55 28 l38 14 -47 20
c-25 12 -68 24 -95 27 -26 4 -59 13 -72 22 -14 8 -41 19 -60 24 -20 5 -54 14
-76 19 -22 6 -129 13 -239 17 -137 5 -201 11 -203 19 -3 7 21 14 70 18 79 8
455 0 523 -11 l41 -6 12 46 c13 54 44 76 80 57 11 -7 21 -18 21 -25 0 -7 11
-23 25 -36 14 -13 25 -33 25 -45 0 -24 29 -55 51 -55 8 0 21 15 27 34 7 19 31
52 52 74 22 22 40 47 40 57 0 13 -4 15 -12 8 -7 -6 -23 -13 -35 -16 -19 -4
-26 1 -39 29 -9 19 -23 34 -31 34 -15 0 -13 -6 19 -52 24 -34 21 -81 -5 -86
-11 -2 -33 11 -55 35 -83 86 -126 108 -252 133 -25 5 -70 16 -100 24 -62 18
-176 21 -216 6 -36 -14 -42 -5 -16 23 29 31 100 55 197 67 44 6 87 12 96 15
15 5 39 45 39 64 0 12 -132 108 -166 122 -67 26 -232 69 -266 69 -75 0 -89 22
-30 47 50 21 268 12 368 -15 46 -13 88 -18 126 -14 53 4 56 3 60 -19 2 -18 11
-25 33 -29 25 -4 31 -10 33 -37 4 -38 -13 -73 -33 -73 -8 0 -15 4 -15 9 0 12
-29 41 -41 41 -12 0 -10 -63 4 -123 11 -43 18 -52 62 -78 70 -40 75 -42 83
-35 4 4 -4 16 -18 26 -21 16 -25 26 -23 67 2 59 23 111 57 141 28 24 28 47 0
104 -22 44 -18 66 14 70 38 4 39 39 7 158 -14 52 -28 104 -31 115 -3 13 3 30
18 47 74 84 153 195 169 236 5 12 26 46 47 75 29 39 51 56 85 69 44 16 45 16
50 -3 5 -19 -5 -45 -40 -109 -26 -47 -45 -95 -59 -148 -17 -65 -17 -85 -2
-100 13 -13 33 19 48 80 6 21 15 57 21 81 5 23 22 62 36 86 15 25 25 58 24 75
0 17 7 55 16 84 16 49 19 52 50 52 37 0 61 23 125 117 53 78 51 83 -30 83 -77
0 -77 0 -116 -103 -13 -34 -32 -77 -43 -95 l-20 -33 -7 42 c-6 36 -2 50 31
108 21 36 40 69 41 74 2 4 -420 7 -937 7 l-941 0 0 -1600z m1321 1108 c31 -37
51 -79 44 -95 -4 -12 -13 -5 -33 28 -27 42 -46 89 -35 89 3 0 13 -10 24 -22z
m-546 -1008 c3 -5 -1 -10 -10 -10 -9 0 -13 5 -10 10 3 6 8 10 10 10 2 0 7 -4
10 -10z m331 -349 c-28 -19 -41 -25 -156 -71 -144 -59 -201 -84 -275 -122 -44
-22 -91 -49 -105 -58 -14 -10 -36 -20 -50 -24 -22 -6 -20 -2 14 29 22 19 45
35 51 35 7 0 18 7 25 15 17 21 178 115 265 155 100 46 143 59 205 59 l55 1
-29 -19z m-659 -336 c-9 -8 -22 -15 -29 -15 -7 1 -3 9 11 21 27 22 42 18 18
-6z"/>
<path d="M2180 8935 c0 -14 -1 -28 -2 -32 -7 -20 46 -11 101 17 34 16 61 32
61 35 0 3 -36 5 -80 5 -79 0 -80 0 -80 -25z"/>
<path d="M3890 8950 c-8 -5 -26 -10 -39 -10 -40 0 -312 -98 -336 -121 -15 -14
-65 -10 -71 6 -3 8 6 29 20 46 50 59 23 67 -48 13 -44 -33 -46 -37 -32 -53 22
-24 20 -34 -4 -26 -23 7 -64 -15 -91 -49 -15 -19 -15 -23 -1 -53 15 -32 35
-42 46 -25 6 11 189 102 203 102 6 0 35 11 64 24 30 13 97 38 149 55 52 17
104 36 115 41 11 4 34 11 50 14 17 4 39 8 50 10 11 2 36 9 55 15 19 6 42 8 52
5 10 -3 26 -1 35 5 13 8 -12 10 -92 11 -60 0 -117 -5 -125 -10z m-568 -220
c-12 -11 -23 -20 -26 -20 -2 0 -2 9 1 20 3 12 14 20 26 20 21 0 21 0 -1 -20z"/>
<path d="M2214 8685 c-4 -8 -3 -30 0 -48 4 -17 7 -48 6 -68 0 -24 5 -39 15
-42 20 -8 25 3 32 76 4 51 2 66 -11 80 -21 21 -35 22 -42 2z"/>
<path d="M3477 8576 c-7 -19 0 -25 24 -19 10 3 19 12 19 19 0 18 -36 18 -43 0z"/>
<path d="M3351 8309 c-46 -24 -125 -89 -108 -89 21 0 167 72 206 102 l24 18
-34 -1 c-19 -1 -58 -14 -88 -30z"/>
<path d="M4120 8290 c0 -11 5 -20 10 -20 6 0 10 9 10 20 0 11 -4 20 -10 20 -5
0 -10 -9 -10 -20z"/>
<path d="M2070 8281 c0 -10 -6 -34 -14 -52 -8 -19 -18 -68 -21 -109 -9 -86
-29 -137 -49 -121 -6 6 -18 33 -25 61 -16 64 -58 140 -77 140 -21 0 -27 -43
-20 -129 8 -97 33 -161 63 -161 12 0 25 5 28 10 6 10 87 50 101 50 3 0 33 12
66 27 l60 27 -4 48 c-4 38 -1 54 14 73 15 19 18 37 16 87 l-3 63 -27 -45 c-32
-54 -64 -119 -72 -142 -3 -10 -12 -18 -21 -18 -14 0 -15 14 -9 105 4 58 4 105
0 105 -3 0 -6 -8 -6 -19z"/>
<path d="M4058 8253 c6 -2 18 -2 25 0 6 3 1 5 -13 5 -14 0 -19 -2 -12 -5z"/>
<path d="M1705 8190 c-12 -92 -8 -183 10 -226 8 -20 15 -54 15 -74 0 -65 5
-69 53 -53 51 18 107 54 107 70 0 7 -6 16 -13 20 -8 4 -22 22 -33 38 -10 17
-33 48 -51 69 -31 37 -51 88 -71 181 l-9 40 -8 -65z"/>
<path d="M2311 8192 c-6 -11 -10 -51 -10 -89 1 -37 3 -60 6 -50 3 11 14 28 25
39 16 16 18 27 13 61 -9 52 -20 65 -34 39z"/>
<path d="M2748 8107 c-15 -31 -33 -43 -135 -93 -65 -32 -144 -73 -175 -91 -31
-18 -64 -33 -73 -33 -9 0 -22 15 -31 35 -8 19 -18 35 -23 35 -5 0 -11 -30 -14
-67 -8 -97 -25 -257 -29 -272 -2 -8 3 -16 10 -18 8 -3 12 5 12 22 0 42 32 77
122 136 266 173 364 270 356 353 l-3 29 -17 -36z"/>
<path d="M4110 8083 c-14 -2 -54 -13 -90 -23 -36 -11 -90 -24 -120 -29 -30 -5
-116 -23 -190 -40 -74 -16 -176 -37 -227 -46 -88 -15 -201 -54 -158 -55 11 0
90 -16 175 -36 183 -42 379 -55 438 -28 28 13 31 18 21 35 -8 17 -6 27 13 55
19 27 30 34 57 34 19 0 52 8 73 17 37 16 38 18 38 70 0 29 -1 52 -2 52 -2 -1
-14 -4 -28 -6z m-255 -243 c-3 -5 -15 -10 -26 -10 -11 0 -17 5 -14 10 3 6 15
10 26 10 11 0 17 -4 14 -10z"/>
<path d="M2945 8028 c-27 -17 -52 -34 -55 -38 -3 -4 -23 -18 -45 -32 -22 -14
-53 -40 -70 -57 -16 -17 -35 -31 -40 -31 -6 0 -31 -18 -55 -40 -175 -156 -186
-173 -107 -163 63 9 86 20 97 48 8 21 23 32 33 23 1 -2 16 7 33 19 17 12 34
20 36 17 3 -3 2 -22 -3 -42 -12 -52 -11 -72 2 -50 5 10 31 30 57 45 58 33 132
91 132 104 0 14 -46 11 -87 -6 -19 -8 -44 -15 -53 -15 -10 0 -21 -6 -24 -12
-3 -7 -4 0 -1 15 10 51 73 128 145 179 39 27 70 54 70 59 0 15 -12 11 -65 -23z"/>
<path d="M1530 7812 c0 -11 -7 -25 -15 -32 -16 -13 -21 -90 -7 -90 5 0 15 12
22 26 18 33 63 65 104 73 19 4 32 14 35 26 3 18 2 18 -23 2 -32 -21 -65 -22
-94 -1 -20 14 -22 14 -22 -4z"/>
<path d="M2025 7703 c-90 -60 -178 -105 -197 -100 -16 4 -18 -1 -18 -41 1 -26
9 -62 19 -80 l17 -34 17 26 c17 25 95 56 142 56 18 0 27 15 54 83 22 57 29 89
24 103 -8 19 -10 18 -58 -13z"/>
<path d="M4115 7650 c10 -11 20 -20 22 -20 1 0 3 9 3 20 0 14 -7 20 -22 20
-20 0 -21 -1 -3 -20z"/>
<path d="M3600 7555 c6 -8 22 -17 33 -21 37 -10 347 -169 427 -217 l75 -46 3
126 c1 69 1 127 0 128 -5 5 -455 45 -504 45 -40 0 -45 -2 -34 -15z"/>
<path d="M1707 7554 c-4 -4 -7 -16 -7 -26 0 -10 -16 -35 -35 -57 -38 -41 -48
-66 -15 -36 19 17 53 17 93 0 22 -9 22 5 0 53 -9 20 -19 45 -23 55 -3 10 -8
15 -13 11z"/>
<path d="M3049 7505 c-28 -54 -48 -61 -190 -71 -80 -6 -102 -4 -130 10 -19 10
-52 19 -73 22 -32 3 -43 -1 -62 -21 -13 -14 -32 -25 -44 -25 -11 0 -20 -4 -20
-9 0 -5 -10 -13 -22 -16 -13 -4 -46 -30 -75 -57 -58 -57 -83 -59 -83 -7 0 29
-2 31 -27 25 -34 -9 -206 -71 -250 -91 -17 -8 -45 -15 -61 -15 -27 0 -36 9
-73 65 -81 123 -88 84 -13 -69 24 -50 44 -97 44 -107 0 -9 9 -28 21 -43 21
-26 18 -46 -6 -46 -22 0 -97 93 -134 167 -59 116 -76 116 -46 0 20 -76 19 -78
-10 -71 -14 4 -32 1 -40 -6 -13 -11 -12 -16 4 -39 19 -26 25 -44 22 -68 -2
-23 -39 -14 -121 27 -101 51 -126 52 -71 4 27 -24 40 -42 36 -53 -8 -27 57
-45 165 -47 52 -1 115 -6 140 -12 25 -5 131 -10 235 -11 l190 -2 63 -31 c34
-16 62 -34 62 -39 0 -5 7 -9 15 -9 28 0 21 23 -44 145 -12 22 -37 59 -57 83
-30 36 -40 42 -70 40 -48 -3 -61 13 -39 50 21 35 64 62 98 62 14 0 50 13 81
29 33 18 78 32 113 36 32 3 92 10 133 15 41 5 124 12 183 16 117 7 128 12 180
88 10 15 32 29 48 33 38 7 36 21 -10 60 l-38 33 -24 -45z"/>
<path d="M3651 7293 c8 -9 51 -55 97 -100 45 -46 82 -88 82 -93 0 -5 14 -25
32 -45 27 -31 31 -43 29 -86 -1 -36 3 -51 14 -55 17 -7 77 -102 73 -115 -2 -5
-31 13 -65 40 -34 28 -79 61 -100 75 -21 14 -67 46 -102 71 -35 25 -67 45 -72
43 -5 -2 2 -23 15 -48 13 -25 27 -56 31 -70 4 -14 19 -41 32 -62 25 -36 28
-78 7 -85 -6 -2 -31 12 -55 31 -24 20 -66 52 -93 73 -26 21 -65 52 -85 69 -46
39 -99 70 -107 62 -6 -7 45 -119 82 -178 12 -19 30 -57 40 -84 10 -28 40 -91
67 -140 26 -50 55 -113 64 -141 9 -27 20 -55 25 -62 5 -7 8 -20 6 -30 -3 -14
-11 -10 -43 25 -135 147 -128 142 -178 142 -54 0 -60 -7 -46 -48 6 -17 9 -39
7 -49 -3 -16 -7 -14 -30 11 -44 48 -57 64 -95 119 -66 92 -139 180 -202 242
-61 59 -61 59 -61 30 1 -17 8 -48 16 -70 18 -47 51 -154 65 -210 6 -22 17 -60
24 -85 18 -59 35 -145 35 -175 0 -33 -23 -23 -51 22 -12 19 -34 39 -49 44 -14
6 -44 33 -65 61 -22 28 -44 56 -50 62 -6 6 -18 31 -28 56 -10 25 -29 68 -43
95 -13 28 -24 57 -24 65 -1 11 -5 10 -16 -5 -8 -11 -24 -19 -35 -17 -19 3 -19
-1 -13 -80 3 -46 10 -99 15 -118 5 -19 12 -74 16 -122 5 -74 4 -88 -9 -88 -17
0 -31 26 -64 123 -19 56 -107 198 -135 217 -4 3 -17 24 -29 48 -25 48 -30 50
-55 22 -23 -26 -74 -26 -123 -1 -81 42 -104 44 -167 15 -47 -22 -87 -29 -219
-42 -88 -8 -215 -16 -281 -17 -66 0 -134 -4 -152 -9 -29 -7 -31 -10 -26 -41 5
-29 1 -38 -23 -57 -15 -13 -62 -57 -104 -98 -73 -73 -214 -176 -295 -217 -22
-11 -69 -23 -105 -27 -110 -12 -140 -18 -140 -29 0 -6 14 -26 32 -44 24 -25
32 -41 31 -68 -1 -48 -40 -124 -69 -135 -25 -10 -40 -47 -30 -77 4 -13 -4 -26
-29 -46 -41 -32 -41 -32 -48 -7 -3 13 -14 20 -30 20 -31 0 -37 -22 -20 -73 20
-57 14 -186 -9 -216 -21 -28 -23 -52 -6 -69 10 -10 8 -14 -10 -19 -17 -4 -22
-11 -18 -25 6 -25 -3 -50 -15 -42 -14 8 -11 -28 5 -58 12 -22 12 -29 1 -38 -7
-6 -19 -8 -28 -4 -18 7 -40 -27 -31 -49 3 -9 -2 -27 -11 -41 -10 -14 -13 -26
-9 -26 5 0 4 -4 -2 -8 -23 -16 -44 -58 -44 -88 0 -17 -10 -46 -23 -65 -36 -54
-40 -70 -17 -76 23 -6 23 -3 9 -57 -9 -37 -15 -44 -51 -57 -52 -18 -83 -57
-74 -93 3 -14 13 -26 21 -26 18 0 19 -11 3 -45 -14 -30 -28 -33 -28 -5 0 14
-6 20 -17 18 -25 -4 -64 -53 -57 -71 3 -8 1 -18 -5 -22 -6 -3 -11 -15 -11 -26
0 -24 -46 -73 -60 -64 -6 4 -10 3 -9 -2 4 -16 -24 -63 -38 -63 -7 0 -18 -11
-25 -25 -8 -19 -8 -31 5 -57 15 -31 15 -32 -6 -43 -15 -7 -23 -22 -25 -43 -4
-38 7 -40 38 -7 44 47 74 25 40 -29 -12 -20 -42 -45 -73 -61 -28 -15 -68 -41
-87 -56 -19 -16 -40 -29 -47 -29 -11 0 -13 -338 -13 -1739 l0 -1740 27 -3 c23
-3 30 -11 48 -63 11 -33 28 -71 37 -85 41 -61 52 -121 53 -268 l0 -142 1877 0
c1762 0 1879 1 1898 17 11 10 20 21 20 26 0 9 -46 104 -75 157 -32 58 -65 141
-65 164 0 19 7 27 24 32 29 7 49 -3 148 -75 42 -31 93 -66 112 -78 l36 -22 0
112 0 113 -55 54 c-33 32 -55 63 -55 76 0 12 -7 41 -15 64 -9 26 -19 109 -24
204 -6 100 -17 189 -29 236 -11 41 -28 143 -37 225 -18 150 -18 151 3 198 12
26 26 47 32 47 11 0 100 174 100 195 0 7 13 30 28 51 53 74 52 67 50 547 l-3
449 -92 -74 c-50 -40 -144 -113 -209 -163 -64 -49 -138 -108 -163 -130 -26
-22 -67 -56 -91 -75 -25 -19 -72 -60 -105 -90 -110 -101 -114 -103 -213 -97
-175 11 -353 44 -397 73 -24 15 -45 54 -65 119 -20 61 -16 264 5 308 13 27 14
40 6 56 -6 11 -11 31 -11 44 0 18 -16 37 -54 69 -57 47 -127 122 -185 195 -22
30 -31 51 -29 70 l3 28 31 -34 c18 -18 38 -39 45 -47 96 -100 287 -173 454
-174 84 0 105 7 105 37 0 39 -79 115 -142 137 -29 10 -85 31 -124 47 -50 20
-115 34 -224 49 -149 20 -159 23 -206 65 -24 22 -34 56 -34 113 0 74 -15 120
-51 152 -41 38 -41 61 1 73 44 11 44 11 28 36 -8 13 -23 21 -39 21 -14 0 -45
6 -70 14 -55 17 -153 34 -244 41 -109 10 -171 24 -190 45 -25 28 -17 72 60
316 37 115 73 238 82 274 16 69 18 74 57 161 13 31 28 74 32 95 4 22 19 62 34
89 15 28 36 71 45 98 21 56 36 62 149 61 86 -1 89 -4 106 -69 20 -73 52 -146
71 -155 27 -15 143 -12 175 4 27 15 28 14 68 -40 54 -71 172 -158 245 -180
172 -52 238 -47 428 30 58 23 196 147 260 233 21 28 59 79 86 114 83 111 147
213 147 234 0 11 -4 27 -10 35 -7 12 -16 9 -49 -18 -41 -33 -61 -40 -61 -22 0
30 -110 -14 -172 -69 -21 -18 -48 -30 -73 -33 -35 -4 -43 -1 -72 31 -27 31
-83 122 -83 137 0 2 9 4 20 4 26 0 25 12 -2 30 -40 26 -56 29 -68 14 -17 -19
-40 -17 -70 6 -22 17 -23 19 -7 26 10 3 35 4 57 0 21 -3 41 -2 45 3 5 9 58 27
186 65 31 9 96 17 147 17 88 2 90 2 73 20 -16 17 -40 20 -232 25 -118 3 -230
7 -249 10 -31 5 -33 7 -17 19 15 11 1 12 -88 7 -88 -4 -105 -3 -100 9 10 25
127 103 151 101 17 -1 28 7 39 28 17 32 56 63 127 100 25 13 57 32 70 43 l23
18 -47 -4 c-25 -2 -66 -14 -90 -26 -24 -11 -51 -21 -60 -21 -20 0 -24 25 -38
225 -6 88 -16 176 -21 195 -5 19 -9 51 -9 70 0 35 -23 165 -41 230 -17 62 -27
174 -21 248 l5 73 22 -21 c13 -12 26 -37 29 -55 4 -18 13 -38 20 -44 8 -6 16
-24 19 -39 3 -15 29 -54 57 -87 67 -78 215 -302 237 -357 9 -24 21 -49 26 -56
5 -7 17 -25 26 -42 31 -57 115 -172 135 -186 21 -14 21 -15 -9 -38 l-30 -24
28 -11 c16 -6 35 -11 42 -11 8 0 34 -20 58 -45 25 -25 50 -45 56 -45 6 0 14
14 18 30 l6 30 28 -37 c16 -21 29 -42 29 -46 0 -5 10 -23 23 -40 12 -18 32
-54 45 -82 41 -88 92 -125 92 -66 0 16 -15 76 -34 133 -19 56 -43 132 -54 168
-12 36 -30 92 -42 125 -11 33 -25 76 -31 95 -6 19 -22 59 -35 87 -13 29 -26
65 -30 80 -4 16 -22 62 -40 103 -76 172 -114 285 -114 339 0 44 3 52 17 49 10
-2 22 -12 28 -23 15 -31 33 -52 117 -134 42 -42 81 -85 87 -97 5 -11 26 -32
46 -45 19 -13 38 -35 42 -49 3 -14 14 -33 24 -43 19 -17 19 -5 19 495 l0 513
-39 28 c-22 15 -42 27 -46 27 -3 0 -32 16 -63 37 -94 60 -277 133 -333 133
-19 0 -20 -2 -8 -17z m-813 -671 c2 -15 -2 -22 -12 -22 -11 0 -16 9 -16 26 0
31 23 28 28 -4z m-398 -94 c0 -6 3 -8 7 -5 12 13 30 -13 25 -38 -5 -29 -22
-34 -22 -7 0 10 -7 28 -16 40 -8 12 -10 22 -5 22 6 0 11 -5 11 -12z m471 -51
c9 -12 19 -49 23 -82 3 -33 12 -64 19 -70 10 -8 49 -87 71 -145 4 -8 16 -31
27 -50 46 -76 127 -363 176 -621 7 -40 -35 -66 -317 -200 -336 -158 -377 -166
-450 -83 -19 22 -38 34 -55 34 -20 0 -29 8 -40 33 l-14 32 -1 -32 c0 -17 5
-35 10 -38 6 -3 10 -12 10 -20 0 -8 18 -53 40 -101 23 -48 40 -94 38 -102 -6
-32 -28 -21 -70 35 -53 73 -62 53 -23 -53 29 -80 44 -94 98 -94 33 0 36 -2 42
-41 4 -22 4 -43 1 -46 -3 -3 -36 4 -73 16 -64 19 -73 20 -143 7 -87 -15 -102
-9 -77 33 16 28 16 30 0 35 -10 3 -36 41 -57 83 -63 125 -118 203 -141 203
-29 0 -99 35 -160 79 -83 59 -91 80 -51 124 14 15 33 41 43 59 10 18 28 43 40
57 21 24 30 40 52 95 8 20 15 25 24 18 19 -16 42 7 60 62 16 46 89 156 105
156 4 0 15 18 26 39 10 22 37 60 60 84 49 54 102 126 112 151 4 9 18 22 31 27
15 6 23 15 20 23 -3 8 5 18 21 26 22 10 28 9 36 -3 8 -12 15 -8 43 21 18 19
33 40 33 47 0 7 11 24 25 39 13 15 32 51 41 82 l16 55 17 -23 c65 -84 34 -367
-67 -603 -16 -38 -27 -72 -25 -75 9 -10 63 65 80 110 20 55 77 133 109 151 13
7 24 16 24 21 0 14 27 9 40 -7 7 -8 17 -37 22 -63 16 -86 48 -346 48 -397 0
-27 3 -68 7 -89 l6 -40 14 45 c22 67 29 473 12 614 -14 110 -17 359 -6 389 9
22 29 19 48 -7z m-736 -113 c-4 -24 -13 -38 -31 -44 -16 -7 -24 -17 -24 -34 0
-17 -18 -38 -67 -78 -72 -58 -163 -146 -163 -157 0 -4 -71 -79 -157 -168 -87
-88 -166 -170 -176 -182 -61 -74 -54 136 7 224 12 16 30 46 41 66 11 20 31 49
45 66 27 31 134 113 147 113 5 0 30 20 56 44 25 25 57 48 69 52 13 4 37 16 53
28 43 30 63 42 133 78 34 17 62 37 63 42 0 6 3 5 6 -2 3 -7 2 -29 -2 -48z
m242 31 c18 -11 33 -25 33 -30 0 -12 -20 -35 -31 -35 -13 0 -60 70 -54 81 8
11 7 11 52 -16z m-491 -52 c-10 -10 -19 5 -10 18 6 11 8 11 12 0 2 -7 1 -15
-2 -18z m234 -105 c0 -6 7 -16 16 -22 19 -14 9 -46 -15 -46 -12 0 -16 10 -17
45 0 24 3 42 8 39 4 -3 8 -10 8 -16z m-70 -99 c0 -11 -4 -17 -10 -14 -5 3 -10
13 -10 21 0 8 5 14 10 14 6 0 10 -9 10 -21z m-1237 -414 c-12 -9 -20 -10 -25
-3 -9 16 1 36 20 40 24 5 27 -21 5 -37z m-83 -165 c0 -5 -5 -10 -11 -10 -5 0
-7 5 -4 10 3 6 8 10 11 10 2 0 4 -4 4 -10z m700 -115 c0 -8 -4 -15 -10 -15 -5
0 -10 7 -10 15 0 8 5 15 10 15 6 0 10 -7 10 -15z m-750 -85 c0 -19 -11 -26
-23 -14 -8 8 3 34 14 34 5 0 9 -9 9 -20z m1006 -87 c119 -53 150 -94 72 -92
-66 2 -91 12 -115 48 -20 29 -31 71 -19 71 2 0 30 -12 62 -27z m1465 -130 c21
-21 2 -28 -94 -34 -51 -3 -125 -16 -165 -28 -63 -19 -82 -31 -133 -82 -32 -32
-63 -59 -69 -59 -5 0 -10 15 -10 33 0 34 20 70 55 98 22 19 156 75 195 82 50
10 209 2 221 -10z m-1242 -137 c30 -16 81 -86 81 -111 0 -10 -24 7 -60 43 -73
71 -82 99 -21 68z m122 -186 c10 -7 15 -88 6 -96 -4 -4 -7 11 -7 32 0 22 -7
49 -15 60 -8 10 -14 28 -14 39 0 17 2 17 12 -5 6 -14 15 -27 18 -30z m-1711
-340 c0 -5 -4 -10 -10 -10 -5 0 -10 5 -10 10 0 6 5 10 10 10 6 0 10 -4 10 -10z
m1670 -35 c0 -8 -4 -24 -9 -37 -5 -13 -12 -31 -15 -42 -5 -14 -9 -16 -20 -7
-19 16 -28 71 -15 87 15 19 59 18 59 -1z m-1712 -43 c9 9 12 8 12 -5 0 -20
-47 -34 -62 -19 -6 6 -8 18 -4 28 6 15 8 15 24 0 14 -12 21 -13 30 -4z m2914
-14 c-7 -7 -12 -8 -12 -2 0 6 3 14 7 17 3 4 9 5 12 2 2 -3 -1 -11 -7 -17z
m-2952 -88 c0 -5 -7 -10 -15 -10 -8 0 -15 5 -15 10 0 6 7 10 15 10 8 0 15 -4
15 -10z m2653 -1337 c-7 -2 -19 -2 -25 0 -7 3 -2 5 12 5 14 0 19 -2 13 -5z
m216 -1199 c-48 -91 -47 -90 -56 -81 -8 9 29 85 54 112 11 11 22 29 26 39 4
10 10 17 13 14 2 -3 -14 -41 -37 -84z m-126 -12 c-15 -20 -46 -64 -68 -97 -22
-33 -67 -96 -99 -140 -33 -44 -102 -147 -154 -229 -90 -144 -132 -222 -292
-549 -68 -138 -110 -196 -110 -149 0 25 34 128 77 232 78 191 193 400 343 625
52 77 84 135 78 141 -2 2 -27 -12 -55 -31 -55 -37 -97 -93 -148 -200 -18 -38
-52 -99 -74 -135 -52 -81 -196 -375 -244 -495 -64 -161 -241 -449 -325 -529
-45 -42 -70 -39 -148 18 -8 6 -27 5 -54 -4 -38 -13 -42 -12 -62 8 -21 20 -23
20 -50 4 -28 -16 -30 -16 -44 3 -10 14 -13 32 -9 60 14 86 48 224 77 310 59
177 82 285 60 285 -9 0 -81 -128 -98 -175 -6 -16 -26 -60 -43 -98 -17 -37 -31
-70 -31 -73 0 -6 -35 -78 -55 -114 l-15 -25 0 35 c0 49 21 124 75 275 26 72
55 155 65 185 17 53 44 104 222 428 41 74 74 102 122 102 33 0 41 -15 18 -38
-27 -27 -78 -154 -111 -279 -16 -59 -38 -134 -50 -167 -21 -56 -22 -86 -2 -86
5 0 29 40 54 88 25 49 55 104 66 123 12 19 21 39 21 46 0 29 106 195 163 257
59 63 65 66 108 66 25 0 67 6 92 14 48 14 227 111 312 168 94 63 407 205 413
187 2 -5 -9 -26 -25 -47z m54 -109 c-3 -10 -5 -4 -5 12 0 17 2 24 5 18 2 -7 2
-21 0 -30z m-33 -91 c-10 -26 -36 -76 -59 -112 -55 -87 -71 -120 -107 -220
-33 -93 -105 -243 -119 -248 -5 -2 -9 -12 -9 -23 0 -10 -5 -19 -11 -19 -6 0
-8 8 -5 18 3 9 8 30 12 45 6 27 5 28 -14 16 -20 -12 -61 -87 -77 -138 -4 -13
-40 -87 -81 -165 -67 -128 -109 -186 -135 -186 -12 0 -11 76 2 125 12 44 86
220 120 288 76 148 247 404 280 419 14 6 37 27 51 47 117 159 158 217 159 226
1 5 3 2 6 -8 2 -9 -3 -39 -13 -65z m-1310 -305 c-21 -45 -51 -102 -65 -127
-15 -25 -33 -67 -40 -95 -6 -27 -22 -70 -34 -95 -12 -25 -32 -75 -44 -112 -12
-37 -30 -77 -40 -90 -10 -13 -21 -30 -24 -38 -11 -29 -7 47 4 81 35 105 112
286 128 299 3 3 12 23 20 45 26 79 93 220 109 233 31 24 26 -14 -14 -101z
m-170 -43 c-13 -25 -24 -49 -24 -55 0 -10 -32 -75 -72 -149 -14 -25 -28 -58
-32 -74 -4 -16 -16 -48 -26 -69 -11 -22 -23 -55 -26 -74 -3 -18 -10 -36 -15
-39 -5 -3 -9 -20 -9 -39 0 -19 -4 -37 -10 -40 -5 -3 -10 -14 -10 -23 0 -9 -20
-57 -44 -107 -46 -93 -70 -121 -199 -224 -50 -40 -89 -66 -157 -104 -14 -8
-53 -17 -87 -21 -59 -7 -63 -6 -79 20 -15 21 -18 47 -17 134 1 94 4 113 27
158 14 28 26 62 26 75 0 13 18 60 40 103 22 44 40 94 40 112 0 17 4 32 9 32
13 0 41 29 41 41 0 6 -5 7 -11 3 -7 -4 -10 -1 -7 7 2 7 15 16 29 19 18 5 23
12 22 31 -4 33 31 121 52 134 9 5 29 21 44 35 16 14 50 31 77 39 27 8 103 31
168 52 66 22 127 39 135 39 9 0 27 7 41 14 14 8 42 14 62 15 l36 1 -24 -46z
m-742 -115 c65 -14 109 -28 113 -37 3 -7 -8 -41 -23 -75 -16 -34 -35 -80 -42
-102 -7 -22 -18 -47 -24 -55 -22 -28 -24 -34 -135 -335 -21 -55 -47 -115 -58
-133 l-21 -34 -7 31 c-4 18 -4 69 0 114 7 94 -4 127 -28 81 -8 -16 -36 -103
-62 -194 -26 -91 -55 -178 -65 -194 l-18 -30 -9 40 c-22 104 12 496 55 645 11
35 32 108 47 162 16 54 37 110 48 124 18 22 25 24 71 20 28 -3 99 -15 158 -28z
m-392 -138 c10 -19 2 -147 -30 -471 -14 -151 -41 -290 -56 -290 -24 0 -34 74
-32 250 1 96 -4 222 -11 280 -13 110 -9 176 15 222 13 24 21 28 59 28 34 0 47
-5 55 -19z m2287 -83 c-3 -7 -5 -2 -5 12 0 14 2 19 5 13 2 -7 2 -19 0 -25z
m-2551 -146 c18 -12 44 -90 74 -226 16 -72 35 -140 41 -152 8 -16 7 -31 -3
-63 -8 -23 -19 -42 -24 -43 -16 -1 -53 85 -69 162 -8 41 -27 123 -41 182 -19
82 -22 113 -14 128 11 21 19 24 36 12z"/>
<path d="M2332 5340 c0 -14 2 -19 5 -12 2 6 2 18 0 25 -3 6 -5 1 -5 -13z"/>
<path d="M2680 6954 c0 -16 76 -220 88 -234 2 -3 8 3 13 12 5 10 16 15 24 12
23 -9 18 11 -20 89 -35 72 -54 99 -88 126 -15 12 -17 11 -17 -5z"/>
<path d="M1427 6942 c-27 -17 -36 -32 -18 -32 5 0 16 6 23 13 7 8 20 16 28 19
8 2 10 7 4 10 -5 4 -22 -1 -37 -10z"/>
<path d="M2531 6774 c0 -11 3 -14 6 -6 3 7 2 16 -1 19 -3 4 -6 -2 -5 -13z"/>
<path d="M763 6533 c9 -2 23 -2 30 0 6 3 -1 5 -18 5 -16 0 -22 -2 -12 -5z"/>
<path d="M3655 5040 c-16 -11 -49 -25 -72 -31 -40 -11 -55 -29 -46 -56 3 -7
10 -13 17 -13 24 0 181 88 181 101 0 22 -47 21 -80 -1z"/>
<path d="M482 4855 c0 -16 2 -22 5 -12 2 9 2 23 0 30 -3 6 -5 -1 -5 -18z"/>
<path d="M2444 3639 c-11 -19 10 -29 74 -35 54 -6 62 -5 62 10 0 9 -12 21 -26
26 -34 13 -101 13 -110 -1z"/>
</g>
</svg>
